<svg width="1343" height="552" viewBox="0 0 1343 552" fill="none" xmlns="http://www.w3.org/2000/svg">
<path d="M343.543 189.915V40.3542C343.543 18.3722 341.806 10.8295 334 0.342041H480.272V74.4765H475.062C475.062 40.6961 455.537 10.5256 411.258 10.5256H394.769V94.1596H402.155C420.382 94.1596 445.116 82.0192 445.116 52.8366H450.327V146.977H445.116C445.116 117.795 420.382 105.654 402.155 105.654H394.769V189.953C394.769 211.935 396.506 219.478 404.311 229.965H334C341.806 219.478 343.543 211.916 343.543 189.953V189.915Z" fill="white"/>
<path d="M623.929 229.927C619.597 224.36 614.826 216.153 610.474 197.781C597.897 144.659 579.231 65.9269 570.107 28.2137C567.073 15.0853 567.073 5.24377 571.864 0.322998H510.656C515.428 5.24377 515.428 15.0853 512.393 28.2137C503.709 65.9269 484.624 144.659 472.027 197.781C467.695 216.153 463.343 224.36 459.45 229.927H496.762C490.693 220.751 489.835 210.244 491.991 199.757C493.288 193.202 494.606 186.305 496.343 179.428L496.782 177.224H553.179C555.834 189.554 557.65 198.123 557.97 199.757C560.126 210.244 559.267 220.751 553.198 229.927H623.929ZM498.419 168.94L498.938 166.299C508.48 121.689 518.462 75.7684 524.99 49.2077C529.522 67.7318 543.137 130.448 551.422 168.94H498.419Z" fill="white"/>
<path d="M637.384 189.592V42.311C637.384 20.329 635.647 10.4875 627.842 0C649.981 0 688.61 0.322985 712.048 0C750.238 0 784.535 7.54264 784.535 44.6099C784.535 66.9148 766.747 85.61 748.521 100.049C757.205 126.287 764.571 147.946 770.66 165.311C783.237 201.391 791.063 218.452 802.781 229.927H729.436C732.909 225.329 733.768 212.543 730.294 199.092C728.996 194.171 726.82 186.628 723.786 177.452C719.454 164 712.926 148.915 705.559 128.244C695.578 135.122 688.63 143.652 688.63 153.494V189.573C688.63 211.555 689.928 219.421 698.173 229.908H627.862C635.667 219.421 637.404 211.536 637.404 189.573L637.384 189.592ZM719.075 12.8054C718.516 12.6724 717.957 12.5584 717.398 12.4634C712.447 11.5705 707.636 11.9884 702.665 11.7984C701.467 11.7604 688.171 11.5895 688.171 11.6844C688.111 13.7174 688.571 62.2791 688.571 71.3036C688.571 89.4478 688.591 107.573 688.591 125.717C704.422 118.231 717.378 105.616 725.822 90.8347C734.506 75.6544 738.559 58.2513 738.599 40.9621C738.599 33.9704 737.82 26.5228 733.329 20.975C729.875 16.7002 724.585 14.0973 719.075 12.8244V12.8054Z" fill="white"/>
<path d="M814.46 189.592V40.3542C814.46 18.3722 813.162 10.8295 806.215 0.342041H875.668C872.633 5.26281 872.194 7.5617 872.194 14.7814C872.194 38.0743 890.58 101.778 906.212 150.644C921.404 101.778 944.661 38.0743 944.661 14.7814C944.661 7.5617 944.222 5.26281 941.188 0.342041H1008.88C1002.38 10.8295 1001.08 18.3912 1001.08 40.3542V189.592C1001.08 211.574 1002.38 219.44 1008.88 229.927H940.309C947.256 219.44 948.554 211.555 948.554 189.592C948.554 167.629 948.993 71.5127 948.993 71.5127C928.591 131.531 914.277 177.129 897.787 229.927H880.858C864.368 176.787 851.352 131.531 831.389 71.5127C831.389 71.5127 831.828 167.61 831.828 189.592C831.828 211.574 833.126 219.44 840.073 229.927H806.215C813.162 219.44 814.46 211.555 814.46 189.592Z" fill="white"/>
</svg>
