<svg width="50" height="62" viewBox="0 0 50 62" fill="none" xmlns="http://www.w3.org/2000/svg">
<path d="M2.72738 51.0033V11.3823C2.72738 5.46883 2.23097 2.82131 0 0C6.32774 0 17.3685 0.086888 24.0671 0C34.9823 0 44.7849 2.02909 44.7849 12.0008C44.7849 18.0012 39.701 23.0304 34.4916 26.9148C36.9736 33.9732 39.0791 39.7998 40.8194 44.4713C44.414 54.1772 46.6507 58.767 50 61.8541H29.0369C30.0297 60.6172 30.275 57.1774 29.2822 53.5588C28.9113 52.235 28.2894 50.206 27.4221 47.7373C26.184 44.1187 24.3182 40.0605 22.2127 34.4997C19.3598 36.3499 17.3742 38.6447 17.3742 41.2923V50.9982C17.3742 56.9117 17.7451 59.0276 20.1016 61.8489H0.00570267C2.23667 59.0276 2.73308 56.9066 2.73308 50.9982L2.72738 51.0033ZM26.0755 3.44485C25.9158 3.40908 25.756 3.37841 25.5963 3.35286C24.1812 3.11264 22.8061 3.22508 21.3854 3.17397C21.043 3.16375 17.243 3.11775 17.243 3.1433C17.2258 3.69019 17.3571 16.7541 17.3571 19.1818C17.3571 24.0629 17.3628 28.9388 17.3628 33.8199C21.8875 31.8061 25.5906 28.4124 28.0041 24.436C30.4861 20.3522 31.6444 15.6705 31.6558 11.0194C31.6558 9.13858 31.4333 7.13504 30.1495 5.64261C29.1624 4.49262 27.6503 3.79241 26.0755 3.44997V3.44485Z" fill="#110F0F"/>
</svg>
