<svg width="46" height="62" viewBox="0 0 46 62" fill="none" xmlns="http://www.w3.org/2000/svg">
<path d="M46 61.8541C44.7884 60.3544 43.4541 58.1433 42.2369 53.194C38.7195 38.8834 33.4992 17.6733 30.9477 7.51359C30.099 3.97688 30.099 1.32563 31.439 0H14.3209C15.6553 1.32563 15.6553 3.97688 14.8067 7.51359C12.378 17.6733 7.04042 38.8834 3.51742 53.194C2.30586 58.1433 1.08872 60.3544 0 61.8541H10.435C8.73771 59.3819 8.49763 56.5516 9.10062 53.7263C9.46353 51.9605 9.83202 50.1026 10.3178 48.2498L10.4406 47.656H26.2131C26.9557 50.9778 27.4638 53.2861 27.5531 53.7263C28.1561 56.5516 27.916 59.3819 26.2187 61.8541H46ZM10.8984 45.4245L11.0436 44.713C13.7123 32.6954 16.5039 20.3246 18.3296 13.1693C19.597 18.1596 23.4048 35.0549 25.7218 45.4245H10.8984Z" fill="#110F0F"/>
</svg>
