<svg width="96" height="137" viewBox="0 0 96 137" fill="none" xmlns="http://www.w3.org/2000/svg">
<path d="M96 136.995C93.4715 133.691 90.6867 128.82 88.1466 117.915C80.8059 86.3861 69.9114 39.6563 64.5865 17.2724C62.8154 9.4803 62.8154 3.63906 65.6118 0.718445H29.8871C32.6719 3.63906 32.6719 9.4803 30.9008 17.2724C25.8323 39.6563 14.693 86.3861 7.3407 117.915C4.81223 128.82 2.27212 133.691 0 136.995H21.7774C18.2352 131.549 17.7342 125.313 18.9926 119.088C19.75 115.198 20.519 111.104 21.5327 107.022L21.7891 105.714H54.7057C56.2554 113.033 57.3157 118.118 57.5021 119.088C58.7605 125.313 58.2595 131.549 54.7173 136.995H96ZM22.7445 100.798L23.0475 99.2301C28.6171 72.7528 34.443 45.4975 38.2532 29.7329C40.8982 40.7275 48.8448 77.9513 53.6803 100.798H22.7445Z" fill="#110F0F"/>
</svg>
