<svg width="118" height="137" viewBox="0 0 118 137" fill="none" xmlns="http://www.w3.org/2000/svg">
<path d="M4.80044 113.053V24.4688C4.80044 11.4207 4.04492 6.9436 0 0.718445H40.4375C38.6708 3.6393 38.4151 5.00388 38.4151 9.28931C38.4151 23.1155 49.1202 60.9288 58.2212 89.9344C67.0666 60.9288 80.6078 23.1155 80.6078 9.28931C80.6078 5.00388 80.3521 3.6393 78.5853 0.718445H118C114.211 6.9436 113.455 11.432 113.455 24.4688V113.053C113.455 126.101 114.211 130.77 118 136.995H78.0739C82.1188 130.77 82.8743 126.09 82.8743 113.053C82.8743 100.016 83.13 42.9638 83.13 42.9638C71.251 78.5892 62.9171 105.655 53.3162 136.995H43.4596C33.8587 105.452 26.2803 78.5892 14.657 42.9638C14.657 42.9638 14.9127 100.005 14.9127 113.053C14.9127 126.101 15.6683 130.77 19.7132 136.995H0C4.04492 130.77 4.80044 126.09 4.80044 113.053Z" fill="#110F0F"/>
</svg>
