<svg width="102" height="137" viewBox="0 0 102 137" fill="none" xmlns="http://www.w3.org/2000/svg">
<path d="M5.56385 113.089V25.796C5.56385 12.7674 4.55118 6.93434 0 0.718445C12.9086 0.718445 35.4317 0.909876 49.0969 0.718445C71.3639 0.718445 91.3612 5.18893 91.3612 27.1585C91.3612 40.3785 80.9901 51.4591 70.3629 60.0172C75.4262 75.5682 79.7213 88.4053 83.2715 98.6976C90.6046 120.082 95.1674 130.194 102 136.995H59.2352C61.2605 134.27 61.761 126.692 59.7357 118.719C58.9791 115.803 57.7104 111.332 55.9411 105.893C53.4153 97.9206 49.609 88.9796 45.3139 76.728C39.494 80.8044 35.4433 85.8604 35.4433 91.6935V113.077C35.4433 126.106 36.1999 130.768 41.0072 136.984H0.0116335C4.56281 130.768 5.57548 126.095 5.57548 113.077L5.56385 113.089ZM53.1941 8.30814C52.8682 8.22932 52.5423 8.16175 52.2164 8.10545C49.3297 7.5762 46.5245 7.82393 43.6261 7.71132C42.9278 7.6888 35.1756 7.58746 35.1756 7.64376C35.1407 8.84865 35.4084 37.6309 35.4084 42.9798C35.4084 53.7337 35.4201 64.4764 35.4201 75.2303C44.6505 70.7936 52.2047 63.3165 57.1284 54.5557C62.1917 45.5585 64.5546 35.2437 64.5779 24.9965C64.5779 20.8525 64.1239 16.4383 61.505 13.1502C59.4913 10.6166 56.4067 9.07387 53.1941 8.3194V8.30814Z" fill="#110F0F"/>
</svg>
