<svg width="57" height="62" viewBox="0 0 57 62" fill="none" xmlns="http://www.w3.org/2000/svg">
<path d="M2.31886 50.9871V10.7799C2.31886 4.85762 1.9539 2.82551 0 0H19.5334C18.68 1.32574 18.5564 1.9451 18.5564 3.89019C18.5564 10.1657 23.7275 27.3286 28.1238 40.4938C32.3966 27.3286 38.9377 10.1657 38.9377 3.89019C38.9377 1.9451 38.8141 1.32574 37.9607 0H57C55.1696 2.82551 54.8047 4.86274 54.8047 10.7799V50.9871C54.8047 56.9094 55.1696 59.0285 57 61.8541H37.7136C39.6675 59.0285 40.0325 56.9043 40.0325 50.9871C40.0325 45.0699 40.156 19.1746 40.156 19.1746C34.4178 35.3444 30.3921 47.6293 25.7544 61.8541H20.9932C16.3555 47.5371 12.6947 35.3444 7.08008 19.1746C7.08008 19.1746 7.20361 45.0648 7.20361 50.9871C7.20361 56.9094 7.56856 59.0285 9.52246 61.8541H0C1.9539 59.0285 2.31886 56.9043 2.31886 50.9871Z" fill="#110F0F"/>
</svg>
