<svg width="29" height="37" viewBox="0 0 29 37" fill="none" xmlns="http://www.w3.org/2000/svg">
<path d="M1.58188 30.5093V6.80871C1.58188 3.27136 1.29396 1.68765 0 0C3.67009 0 10.0737 0.0519749 13.9589 0C20.2897 0 25.9752 1.21377 25.9752 7.17865C25.9752 10.768 23.0266 13.7764 20.0051 16.1C21.4447 20.3222 22.6659 23.8076 23.6752 26.602C25.7601 32.4079 27.0574 35.1534 29 37H16.8414C17.4172 36.2601 17.5595 34.2025 16.9837 32.0379C16.7686 31.2461 16.4079 30.0323 15.9048 28.5556C15.1867 26.391 14.1045 23.9635 12.8834 20.6371C11.2287 21.7438 10.077 23.1166 10.077 24.7003V30.5062C10.077 34.0435 10.2921 35.3093 11.6589 36.9969H0.00330755C1.29727 35.3093 1.58519 34.0405 1.58519 30.5062L1.58188 30.5093ZM15.1238 2.06065C15.0312 2.03925 14.9385 2.02091 14.8458 2.00562C14.0251 1.86192 13.2275 1.92919 12.4035 1.89861C12.205 1.8925 10.0009 1.86498 10.0009 1.88027C9.99098 2.2074 10.0671 10.022 10.0671 11.4742C10.0671 14.394 10.0704 17.3107 10.0704 20.2305C12.6947 19.0259 14.8425 16.9958 16.2424 14.6172C17.682 12.1744 18.3538 9.37382 18.3604 6.59164C18.3604 5.46653 18.2313 4.26805 17.4867 3.37531C16.9142 2.68741 16.0372 2.26855 15.1238 2.06371V2.06065Z" fill="#110F0F"/>
</svg>
