<svg width="34" height="37" viewBox="0 0 34 37" fill="none" xmlns="http://www.w3.org/2000/svg">
<path d="M1.38318 30.4996V6.44836C1.38318 2.90574 1.16548 1.69017 0 0H11.6515C11.1424 0.793032 11.0688 1.16352 11.0688 2.32704C11.0688 6.08093 14.1533 16.3475 16.7756 24.2227C19.3243 16.3475 23.226 6.08093 23.226 2.32704C23.226 1.16352 23.1523 0.793032 22.6432 0H34C32.9082 1.69017 32.6905 2.90881 32.6905 6.44836V30.4996C32.6905 34.0422 32.9082 35.3098 34 37H22.4959C23.6613 35.3098 23.879 34.0391 23.879 30.4996C23.879 26.96 23.9527 11.4699 23.9527 11.4699C20.5299 21.1424 18.1286 28.491 15.3623 37H12.5223C9.75591 28.4359 7.5723 21.1424 4.22321 11.4699C4.22321 11.4699 4.29689 26.957 4.29689 30.4996C4.29689 34.0422 4.51458 35.3098 5.68006 37H0C1.16548 35.3098 1.38318 34.0391 1.38318 30.4996Z" fill="#110F0F"/>
</svg>
