<svg width="28" height="37" viewBox="0 0 28 37" fill="none" xmlns="http://www.w3.org/2000/svg">
<path d="M28 37C27.2625 36.1029 26.4503 34.7803 25.7094 31.8197C23.5684 23.2593 20.3908 10.5719 18.8377 4.4945C18.3212 2.3789 18.3212 0.792966 19.1368 0H8.71708C9.52931 0.792966 9.52931 2.3789 9.01274 4.4945C7.53441 10.5719 4.28547 23.2593 2.14104 31.8197C1.40357 34.7803 0.662702 36.1029 0 37H6.35174C5.31861 35.5212 5.17247 33.8281 5.53951 32.1381C5.76041 31.0818 5.98471 29.9705 6.28037 28.8621L6.35514 28.507H15.9558C16.4078 30.494 16.7171 31.8748 16.7715 32.1381C17.1385 33.8281 16.9924 35.5212 15.9592 37H28ZM6.63381 27.1721L6.72218 26.7465C8.34664 19.5578 10.0459 12.1578 11.1572 7.87762C11.9286 10.8627 14.2464 20.9692 15.6568 27.1721H6.63381Z" fill="#110F0F"/>
</svg>
