<svg width="36" height="36" viewBox="0 0 36 36" fill="none" xmlns="http://www.w3.org/2000/svg">
<g clip-path="url(#clip0_413_1472)">
<path fill-rule="evenodd" clip-rule="evenodd" d="M0 1.36709C0 0.612068 0.594338 0 1.32749 0H2.62744C5.08219 0 7.15282 1.88244 7.45729 4.39092L7.80932 7.29115H32.902C34.7956 7.29115 36.2459 9.02558 35.9651 10.9542L34.0672 23.9841C33.7097 26.438 31.6629 28.2533 29.2536 28.2533H12.341C9.93161 28.2533 7.88479 26.438 7.5274 23.9841L5.32465 8.86102L5.32019 8.82779L4.82283 4.73004C4.68443 3.58983 3.74323 2.73418 2.62744 2.73418H1.32749C0.594338 2.73418 0 2.12211 0 1.36709ZM8.17891 10.0253L10.153 23.5784C10.3154 24.6937 11.2458 25.519 12.341 25.519H29.2536C30.3489 25.519 31.2793 24.6937 31.4417 23.5784L33.3396 10.5486C33.3797 10.2731 33.1724 10.0253 32.902 10.0253H8.17891Z" fill="#383C3A"/>
<path d="M31.4169 34.1772C31.4169 35.1838 30.6244 35.9999 29.6468 35.9999C28.6694 35.9999 27.877 35.1838 27.877 34.1772C27.877 33.1705 28.6694 32.3542 29.6468 32.3542C30.6244 32.3542 31.4169 33.1705 31.4169 34.1772Z" fill="#383C3A"/>
<path d="M13.7177 34.1772C13.7177 35.1838 12.9253 35.9999 11.9477 35.9999C10.9702 35.9999 10.1777 35.1838 10.1777 34.1772C10.1777 33.1705 10.9702 32.3542 11.9477 32.3542C12.9253 32.3542 13.7177 33.1705 13.7177 34.1772Z" fill="#383C3A"/>
</g>
<defs>
<clipPath id="clip0_413_1472">
<rect width="36" height="36" fill="white"/>
</clipPath>
</defs>
</svg>
