<svg width="48" height="48" viewBox="0 0 48 48" fill="none" xmlns="http://www.w3.org/2000/svg">
<path d="M21.9198 3.84C18.6132 3.84 15.5998 4.64 12.8798 6.24C10.1598 7.84 7.97318 10.0267 6.31984 12.8C4.66651 15.5733 3.83984 18.5867 3.83984 21.84C3.83984 25.0933 4.66651 28.1067 6.31984 30.88C7.97318 33.6533 10.1598 35.84 12.8798 37.44C15.5998 39.04 18.6132 39.84 21.9198 39.84C23.9465 39.84 25.9198 39.4933 27.8398 38.8C29.7598 38.1067 31.5198 37.1733 33.1198 36L40.6398 43.36C40.9598 43.7867 41.4132 44 41.9998 44C42.5865 44 43.0665 43.8133 43.4398 43.44C43.8132 43.0667 43.9998 42.5867 43.9998 42C43.9998 41.4133 43.7865 40.96 43.3598 40.64L35.9998 33.12C37.1732 31.52 38.1065 29.76 38.7998 27.84C39.4932 25.92 39.8398 23.9467 39.8398 21.92C39.8398 18.6133 39.0398 15.5733 37.4398 12.8C35.8398 10.0267 33.6532 7.84 30.8798 6.24C28.1065 4.64 25.1198 3.84 21.9198 3.84ZM21.9198 7.84C24.4798 7.84 26.8265 8.48 28.9598 9.76C31.0932 11.04 32.7732 12.7467 33.9998 14.88C35.2265 17.0133 35.8398 19.3333 35.8398 21.84C35.8398 24.3467 35.2265 26.6933 33.9998 28.88C32.7732 31.0667 31.0932 32.7733 28.9598 34C26.8265 35.2267 24.4798 35.84 21.9198 35.84C19.3598 35.84 17.0132 35.2267 14.8798 34C12.7465 32.7733 11.0398 31.0667 9.75984 28.88C8.47984 26.6933 7.83984 24.3467 7.83984 21.84C7.83984 19.3333 8.47984 17.0133 9.75984 14.88C11.0398 12.7467 12.7465 11.04 14.8798 9.76C17.0132 8.48 19.3598 7.84 21.9198 7.84Z" fill="white"/>
</svg>
